<svg width="186" height="146" viewBox="0 0 186 146" fill="none" xmlns="http://www.w3.org/2000/svg">
<path d="M93.2701 33.6758L93 33.6575L92.7299 33.6758L83.6484 34.2903C79.7381 29.7983 73.3141 23.0248 65.5293 17.0898C56.8902 10.5036 45.9946 4.5 34.6667 4.5H32.5239L31.3367 6.2838L34.6667 8.5C31.3367 6.2838 31.3355 6.28563 31.3342 6.28755L31.3314 6.29189L31.3245 6.30228L31.3063 6.32995C31.2923 6.35144 31.2744 6.37902 31.2529 6.41263C31.2098 6.47985 31.152 6.5712 31.0811 6.68619C30.9394 6.91612 30.745 7.24083 30.5103 7.65626C30.0409 8.48678 29.4089 9.68222 28.7128 11.2102C27.3219 14.2634 25.6663 18.6644 24.5492 24.1497C22.397 34.7179 22.2632 49.2444 29.7514 65.7427C26.3829 70.7734 23.7434 74.7798 22.7054 81.3336L9.65563 83.2944L5.44708 83.9268L6.33879 88.0881L8.08879 96.2548L8.87458 99.9218L12.5846 99.3737L22.0317 97.9781L12.6952 103.568L9.44257 105.516L11.2129 108.868L15.1296 116.285L17.1223 120.058L20.7591 117.826L29.2143 112.636C40.8548 132.314 65.6434 141.667 93 141.667C120.357 141.667 145.145 132.314 156.786 112.636L165.241 117.826L168.878 120.058L170.87 116.285L174.787 108.868L176.557 105.516L173.305 103.568L163.968 97.9781L173.415 99.3737L177.125 99.9218L177.911 96.2548L179.661 88.0881L180.553 83.9268L176.344 83.2944L163.295 81.3336C162.257 74.7798 159.617 70.7734 156.249 65.7427C163.737 49.2444 163.603 34.7179 161.451 24.1497C160.334 18.6644 158.678 14.2634 157.287 11.2102C156.591 9.68222 155.959 8.48677 155.49 7.65626C155.255 7.24082 155.061 6.91612 154.919 6.68619C154.848 6.5712 154.79 6.47984 154.747 6.41263C154.726 6.37902 154.708 6.35144 154.694 6.32995L154.676 6.30228L154.669 6.29189L154.666 6.28755C154.664 6.28563 154.663 6.2838 151.333 8.5L154.663 6.2838L153.476 4.5H151.333C140.005 4.5 129.11 10.5036 120.471 17.0898C112.686 23.0248 106.262 29.7983 102.352 34.2903L93.2701 33.6758ZM91.1597 91.6667H94.8404L93 95.3211L91.1597 91.6667ZM68 66.6667C69.1493 66.6667 70.2515 67.1232 71.0641 67.9359C71.8768 68.7485 72.3333 69.8507 72.3333 71C72.3333 72.1493 71.8768 73.2515 71.0641 74.0641C70.2515 74.8768 69.1493 75.3333 68 75.3333C66.8507 75.3333 65.7485 74.8768 64.9359 74.0641C64.1232 73.2515 63.6667 72.1493 63.6667 71C63.6667 69.8507 64.1232 68.7485 64.9359 67.9359C65.7485 67.1232 66.8507 66.6667 68 66.6667ZM118 66.6667C119.149 66.6667 120.251 67.1232 121.064 67.9359C121.877 68.7485 122.333 69.8507 122.333 71C122.333 72.1493 121.877 73.2515 121.064 74.0641C120.251 74.8768 119.149 75.3333 118 75.3333C116.851 75.3333 115.749 74.8768 114.936 74.0641C114.123 73.2515 113.667 72.1493 113.667 71C113.667 69.8507 114.123 68.7485 114.936 67.9359C115.749 67.1232 116.851 66.6667 118 66.6667Z" fill="#F6C493" stroke="#FFDDBB" stroke-width="8"/>
</svg>
