<svg width="32" height="32" viewBox="0 0 32 32" fill="none" xmlns="http://www.w3.org/2000/svg">
<path d="M10.6666 8.00016C9.95934 8.00016 9.28106 8.28111 8.78097 8.78121C8.28087 9.28131 7.99992 9.95959 7.99992 10.6668V21.3335C7.99992 22.0407 8.28087 22.719 8.78097 23.2191C9.28106 23.7192 9.95934 24.0002 10.6666 24.0002H21.3333C22.0405 24.0002 22.7188 23.7192 23.2189 23.2191C23.719 22.719 23.9999 22.0407 23.9999 21.3335V18.6668C23.9999 18.3132 24.1404 17.9741 24.3904 17.724C24.6405 17.474 24.9796 17.3335 25.3333 17.3335C25.6869 17.3335 26.026 17.474 26.2761 17.724C26.5261 17.9741 26.6666 18.3132 26.6666 18.6668V21.3335C26.6666 22.748 26.1047 24.1045 25.1045 25.1047C24.1043 26.1049 22.7477 26.6668 21.3333 26.6668H10.6666C9.2521 26.6668 7.89554 26.1049 6.89535 25.1047C5.89515 24.1045 5.33325 22.748 5.33325 21.3335V10.6668C5.33325 9.25234 5.89515 7.89579 6.89535 6.89559C7.89554 5.8954 9.2521 5.3335 10.6666 5.3335H13.3333C13.6869 5.3335 14.026 5.47397 14.2761 5.72402C14.5261 5.97407 14.6666 6.31321 14.6666 6.66683C14.6666 7.02045 14.5261 7.35959 14.2761 7.60964C14.026 7.85969 13.6869 8.00016 13.3333 8.00016H10.6666ZM18.6666 8.00016C18.313 8.00016 17.9738 7.85969 17.7238 7.60964C17.4737 7.35959 17.3333 7.02045 17.3333 6.66683C17.3333 6.31321 17.4737 5.97407 17.7238 5.72402C17.9738 5.47397 18.313 5.3335 18.6666 5.3335H25.3333C25.6869 5.3335 26.026 5.47397 26.2761 5.72402C26.5261 5.97407 26.6666 6.31321 26.6666 6.66683V13.3335C26.6666 13.6871 26.5261 14.0263 26.2761 14.2763C26.026 14.5264 25.6869 14.6668 25.3333 14.6668C24.9796 14.6668 24.6405 14.5264 24.3904 14.2763C24.1404 14.0263 23.9999 13.6871 23.9999 13.3335V9.8855L19.6106 14.2775C19.4866 14.4015 19.3394 14.4998 19.1775 14.5669C19.0155 14.634 18.8419 14.6685 18.6666 14.6685C18.4913 14.6685 18.3177 14.634 18.1557 14.5669C17.9937 14.4998 17.8466 14.4015 17.7226 14.2775C17.5986 14.1535 17.5003 14.0064 17.4332 13.8444C17.3661 13.6824 17.3316 13.5088 17.3316 13.3335C17.3316 13.1582 17.3661 12.9846 17.4332 12.8226C17.5003 12.6606 17.5986 12.5135 17.7226 12.3895L22.1146 8.00016H18.6666Z" fill="#000A88"/>
</svg>
