<svg width="1728" height="325" viewBox="0 0 1728 320" preserveAspectRatio="none" fill="none" xmlns="http://www.w3.org/2000/svg">
<mask id="path-1-outside-1_19_9" maskUnits="userSpaceOnUse" x="-5" y="0" width="1739" height="330" fill="black">
<rect fill="white" x="-5" width="1739" height="330"/>
<path fill-rule="evenodd" clip-rule="evenodd" d="M20.16 13.3474L0 15.046V29.8402V32.032V325H1728L1728 32.032L1728 29.8402L1728 25.2376L1707.84 24.1052C1686.24 22.9728 1645.92 20.708 1604.16 17.877C1599.84 17.5736 1595.5 17.2638 1591.15 16.953C1554.91 14.3635 1517.76 11.7095 1481.76 12.215C1454.72 12.5817 1427.67 14.6105 1401.02 16.61C1386.52 17.6981 1372.13 18.7775 1357.92 19.5756C1316.16 21.8404 1275.84 21.8404 1234.08 21.8404C1193.76 21.8404 1152 21.8404 1110.24 18.4432C1093.09 16.9981 1075.68 14.9384 1058.23 12.8741C1034.65 10.0854 1011.01 7.28824 987.84 5.9868C957.578 4.34556 928.071 5.08306 898.225 5.82905C886.886 6.11247 875.498 6.39711 864 6.553C846.094 6.79577 828.453 6.72626 810.85 6.6569C787.399 6.56449 764.014 6.47235 740.16 7.1192C699.84 8.2516 658.08 11.6488 617.76 15.6122C613.479 16.0185 609.198 16.4307 604.919 16.8428C567.453 20.4507 530.107 24.0471 493.92 23.539C468.985 23.2009 444.564 21.0461 420.043 18.8824C403.497 17.4225 386.905 15.9585 370.08 15.046C345.866 13.6859 321.132 13.551 296.191 13.415C279.602 13.3245 262.921 13.2335 246.24 12.7812C230.217 12.3312 213.966 11.5235 197.668 10.7134C172.956 9.48519 148.137 8.2516 123.84 8.2516C84.4965 8.2516 46.4312 11.267 24.0944 13.0364C22.7225 13.1451 21.4099 13.2491 20.16 13.3474Z"/>
</mask>
<path fill-rule="evenodd" clip-rule="evenodd" d="M20.16 13.3474L0 15.046V29.8402V32.032V325H1728L1728 32.032L1728 29.8402L1728 25.2376L1707.84 24.1052C1686.24 22.9728 1645.92 20.708 1604.16 17.877C1599.84 17.5736 1595.5 17.2638 1591.15 16.953C1554.91 14.3635 1517.76 11.7095 1481.76 12.215C1454.72 12.5817 1427.67 14.6105 1401.02 16.61C1386.52 17.6981 1372.13 18.7775 1357.92 19.5756C1316.16 21.8404 1275.84 21.8404 1234.08 21.8404C1193.76 21.8404 1152 21.8404 1110.24 18.4432C1093.09 16.9981 1075.68 14.9384 1058.23 12.8741C1034.65 10.0854 1011.01 7.28824 987.84 5.9868C957.578 4.34556 928.071 5.08306 898.225 5.82905C886.886 6.11247 875.498 6.39711 864 6.553C846.094 6.79577 828.453 6.72626 810.85 6.6569C787.399 6.56449 764.014 6.47235 740.16 7.1192C699.84 8.2516 658.08 11.6488 617.76 15.6122C613.479 16.0185 609.198 16.4307 604.919 16.8428C567.453 20.4507 530.107 24.0471 493.92 23.539C468.985 23.2009 444.564 21.0461 420.043 18.8824C403.497 17.4225 386.905 15.9585 370.08 15.046C345.866 13.6859 321.132 13.551 296.191 13.415C279.602 13.3245 262.921 13.2335 246.24 12.7812C230.217 12.3312 213.966 11.5235 197.668 10.7134C172.956 9.48519 148.137 8.2516 123.84 8.2516C84.4965 8.2516 46.4312 11.267 24.0944 13.0364C22.7225 13.1451 21.4099 13.2491 20.16 13.3474Z" fill="url(#paint0_linear_19_9)"/>
<path d="M0 15.046L-0.419792 10.0636L-5 10.4496V15.046H0ZM20.16 13.3474L19.768 8.36278L19.7541 8.36387L19.7402 8.36505L20.16 13.3474ZM0 325H-5V330H0V325ZM1728 325V330H1733V325H1728ZM1728 32.032L1733 32.032V32.0317L1728 32.032ZM1728 29.8402L1723 29.84V29.8405L1728 29.8402ZM1728 25.2376L1733 25.2377L1733 20.5105L1728.28 20.2454L1728 25.2376ZM1707.84 24.1052L1708.12 19.113L1708.11 19.1125L1708.1 19.112L1707.84 24.1052ZM1604.16 17.877L1603.81 22.8647L1603.82 22.8655L1604.16 17.877ZM1591.15 16.953L1590.8 21.9403L1591.15 16.953ZM1481.76 12.215L1481.83 17.2145L1481.83 17.2145L1481.76 12.215ZM1401.02 16.61L1400.65 11.624L1401.02 16.61ZM1357.92 19.5756L1358.19 24.5683L1358.2 24.5677L1357.92 19.5756ZM1110.24 18.4432L1109.82 23.4255L1109.83 23.4261L1109.83 23.4267L1110.24 18.4432ZM1058.23 12.8741L1057.64 17.8395L1058.23 12.8741ZM987.84 5.9868L988.12 0.994663L988.111 0.99414L987.84 5.9868ZM898.225 5.82905L898.1 0.830606L898.225 5.82905ZM864 6.553L864.068 11.5525L864 6.553ZM810.85 6.6569L810.87 1.65694L810.85 6.6569ZM740.16 7.1192L740.024 2.12104L740.02 2.12117L740.16 7.1192ZM617.76 15.6122L618.232 20.5898L618.241 20.589L618.249 20.5882L617.76 15.6122ZM604.919 16.8428L604.44 11.8658V11.8658L604.919 16.8428ZM493.92 23.539L493.99 18.5395L493.988 18.5394L493.92 23.539ZM420.043 18.8824L420.483 13.9018L420.043 18.8824ZM370.08 15.046L369.8 20.0381L369.809 20.0387L370.08 15.046ZM296.191 13.415L296.164 18.4149L296.191 13.415ZM246.24 12.7812L246.1 17.7792L246.104 17.7794L246.24 12.7812ZM197.668 10.7134L197.916 5.7196L197.668 10.7134ZM24.0944 13.0364L23.6996 8.05206L24.0944 13.0364ZM0.419792 20.0283L20.5798 18.3297L19.7402 8.36505L-0.419792 10.0636L0.419792 20.0283ZM5 29.8402V15.046H-5V29.8402H5ZM5 32.032V29.8402H-5V32.032H5ZM5 325V32.032H-5V325H5ZM1728 320H0V330H1728V320ZM1723 32.032L1723 325H1733L1733 32.032L1723 32.032ZM1723 29.8405L1723 32.0322L1733 32.0317L1733 29.8399L1723 29.8405ZM1723 25.2374L1723 29.84L1733 29.8403L1733 25.2377L1723 25.2374ZM1707.56 29.0973L1727.72 30.2297L1728.28 20.2454L1708.12 19.113L1707.56 29.0973ZM1603.82 22.8655C1645.61 25.6987 1685.96 27.965 1707.58 29.0983L1708.1 19.112C1686.52 17.9805 1646.23 15.7172 1604.5 12.8884L1603.82 22.8655ZM1590.8 21.9403C1595.15 22.251 1599.49 22.5611 1603.81 22.8647L1604.51 12.8893C1600.19 12.5862 1595.86 12.2765 1591.51 11.9657L1590.8 21.9403ZM1481.83 17.2145C1517.58 16.7125 1554.51 19.3479 1590.8 21.9403L1591.51 11.9657C1555.3 9.37901 1517.94 6.70644 1481.69 7.21549L1481.83 17.2145ZM1401.39 21.596C1428.07 19.5946 1454.96 17.5788 1481.83 17.2145L1481.69 7.21545C1454.47 7.58455 1427.27 9.62641 1400.65 11.624L1401.39 21.596ZM1358.2 24.5677C1372.46 23.7665 1386.9 22.6834 1401.39 21.596L1400.65 11.624C1386.13 12.7127 1371.79 13.7884 1357.64 14.5835L1358.2 24.5677ZM1234.08 26.8404C1275.82 26.8404 1316.27 26.8416 1358.19 24.5682L1357.65 14.5829C1316.05 16.8392 1275.86 16.8404 1234.08 16.8404V26.8404ZM1109.83 23.4267C1151.83 26.8431 1193.79 26.8404 1234.08 26.8404V16.8404C1193.73 16.8404 1152.17 16.8377 1110.65 13.4596L1109.83 23.4267ZM1057.64 17.8395C1075.08 19.902 1092.57 21.9722 1109.82 23.4255L1110.66 13.4608C1093.61 12.0241 1076.28 9.97485 1058.82 7.90875L1057.64 17.8395ZM987.56 10.9789C1010.55 12.2702 1034.04 15.0474 1057.64 17.8395L1058.82 7.90875C1035.27 5.12337 1011.47 2.30625 988.12 0.994672L987.56 10.9789ZM898.35 10.8275C928.226 10.0808 957.536 9.35067 987.569 10.9795L988.111 0.99414C957.619 -0.659555 927.917 0.085361 898.1 0.830606L898.35 10.8275ZM864.068 11.5525C875.599 11.3962 887.015 11.1108 898.35 10.8275L898.1 0.830606C886.756 1.11414 875.396 1.39802 863.932 1.55346L864.068 11.5525ZM810.831 11.6569C828.427 11.7262 846.111 11.796 864.068 11.5525L863.932 1.55346C846.078 1.79554 828.48 1.72633 810.87 1.65694L810.831 11.6569ZM740.296 12.1174C764.06 11.473 787.367 11.5644 810.831 11.6569L810.87 1.65694C787.43 1.56458 763.969 1.47174 740.024 2.12104L740.296 12.1174ZM618.249 20.5882C658.523 16.6294 700.151 13.2449 740.3 12.1172L740.02 2.12117C699.53 3.25835 657.637 6.66823 617.271 10.6362L618.249 20.5882ZM605.398 21.8198C609.678 21.4076 613.956 20.9957 618.232 20.5898L617.288 10.6346C613.003 11.0412 608.718 11.4538 604.44 11.8658L605.398 21.8198ZM493.85 28.5385C530.36 29.0512 567.986 25.4225 605.398 21.8198L604.44 11.8658C566.92 15.4789 529.853 19.0431 493.99 18.5395L493.85 28.5385ZM419.604 23.8631C444.096 26.0242 468.701 28.1975 493.852 28.5385L493.988 18.5394C469.27 18.2043 445.032 16.068 420.483 13.9018L419.604 23.8631ZM369.809 20.0387C386.536 20.9458 403.044 22.4019 419.604 23.8631L420.483 13.9018C403.95 12.443 387.274 10.9712 370.351 10.0533L369.809 20.0387ZM296.164 18.4149C321.128 18.551 345.734 18.6863 369.8 20.0381L370.36 10.0539C345.998 8.6854 321.136 8.55092 296.218 8.41503L296.164 18.4149ZM246.104 17.7794C262.848 18.2334 279.583 18.3245 296.164 18.4149L296.218 8.41503C279.62 8.32452 262.993 8.23365 246.376 7.78303L246.104 17.7794ZM197.42 15.7073C213.708 16.5168 230.013 17.3274 246.1 17.7792L246.38 7.78316C230.42 7.33491 214.224 6.53011 197.916 5.7196L197.42 15.7073ZM123.84 13.2516C147.991 13.2516 172.685 14.4779 197.42 15.7073L197.916 5.7196C173.227 4.49248 148.282 3.2516 123.84 3.2516V13.2516ZM24.4893 18.0208C46.8321 16.2509 84.7174 13.2516 123.84 13.2516V3.2516C84.2756 3.2516 46.0302 6.28311 23.6996 8.05206L24.4893 18.0208ZM20.552 18.332C21.8036 18.2336 23.1177 18.1295 24.4893 18.0208L23.6996 8.05206C22.3274 8.16076 21.0162 8.26462 19.768 8.36278L20.552 18.332Z" fill="white" mask="url(#path-1-outside-1_19_9)"/>
<defs>
<linearGradient id="paint0_linear_19_9" x1="864" y1="-1.94064" x2="864" y2="325" gradientUnits="userSpaceOnUse">
<stop stop-color="#739AFF"/>
<stop offset="1" stop-color="#4B72D5"/>
</linearGradient>
</defs>
</svg>
